<svg width="28" height="30" viewBox="0 0 28 30" fill="none" xmlns="http://www.w3.org/2000/svg">
<path fill-rule="evenodd" clip-rule="evenodd" d="M24.8332 27.083L14 30L3.16656 27.083L0.666626 0H27.3334L24.8332 27.083Z" fill="#2062AF"/>
<path fill-rule="evenodd" clip-rule="evenodd" d="M13.9998 2.1936V27.6734L14.0243 27.6801L22.7912 25.3195L24.8148 2.1936H13.9998Z" fill="#3C9CD7"/>
<path fill-rule="evenodd" clip-rule="evenodd" d="M13.9902 8.9656L6.23647 12.1948L6.4936 15.392L13.9902 12.1867L21.9646 8.77723L22.2953 5.50671L13.9902 8.9656Z" fill="white"/>
<mask id="mask0_89_83" style="mask-type:luminance" maskUnits="userSpaceOnUse" x="6" y="8" width="9" height="8">
<path fill-rule="evenodd" clip-rule="evenodd" d="M6.22296 8.95203H14.0037V15.4054H6.22296V8.95203Z" fill="url(#paint0_linear_89_83)"/>
</mask>
<g mask="url(#mask0_89_83)">
<path fill-rule="evenodd" clip-rule="evenodd" d="M6.23647 12.1948L6.4936 15.3919L13.9902 12.1867V8.96558L6.23647 12.1948Z" fill="url(#paint1_linear_89_83)"/>
</g>
<mask id="mask1_89_83" style="mask-type:luminance" maskUnits="userSpaceOnUse" x="13" y="5" width="10" height="8">
<path fill-rule="evenodd" clip-rule="evenodd" d="M13.9767 5.49329H22.3088V12.2002H13.9767V5.49329Z" fill="url(#paint2_linear_89_83)"/>
</mask>
<g mask="url(#mask1_89_83)">
<path fill-rule="evenodd" clip-rule="evenodd" d="M22.2953 5.50684L13.9902 8.96563V12.1867L21.9646 8.77726L22.2953 5.50684Z" fill="url(#paint3_linear_89_83)"/>
</g>
<path fill-rule="evenodd" clip-rule="evenodd" d="M6.24834 12.1947L6.50556 15.3919L18.0081 15.4285L17.7508 19.6914L13.9658 20.757L10.3273 19.8382L10.1068 17.1923H6.72606L7.16706 22.3004L14.0026 24.3215L20.801 22.337L21.683 12.1947H6.24834Z" fill="url(#paint4_linear_89_83)"/>
<path fill-rule="evenodd" clip-rule="evenodd" d="M13.9902 12.1947H6.23656L6.49369 15.3919L13.9902 15.4158V12.1947ZM13.9902 20.7467L13.9535 20.757L10.3155 19.8382L10.095 17.1923H6.71437L7.15528 22.3004L13.9902 24.3215V20.7467Z" fill="black" fill-opacity="0.05098"/>
<path fill-rule="evenodd" clip-rule="evenodd" d="M5.53824 5.50671H22.2953L21.9646 8.77723H5.94243L5.53824 5.50671Z" fill="url(#paint5_linear_89_83)"/>
<path fill-rule="evenodd" clip-rule="evenodd" d="M13.9902 5.50671H5.53824L5.94243 8.77723H13.9902V5.50671Z" fill="black" fill-opacity="0.05098"/>
<defs>
<linearGradient id="paint0_linear_89_83" x1="10.1133" y1="8.96552" x2="10.1133" y2="15.3919" gradientUnits="userSpaceOnUse">
<stop stop-color="white" stop-opacity="0"/>
<stop offset="0.388" stop-color="white"/>
<stop offset="1" stop-color="white" stop-opacity="0.831"/>
</linearGradient>
<linearGradient id="paint1_linear_89_83" x1="10.1133" y1="8.96557" x2="10.1133" y2="15.3919" gradientUnits="userSpaceOnUse">
<stop stop-color="#D1D3D4"/>
<stop offset="0.388" stop-color="#D1D3D4"/>
<stop offset="1" stop-color="#D1D3D4"/>
</linearGradient>
<linearGradient id="paint2_linear_89_83" x1="18.1428" y1="5.50677" x2="18.1428" y2="12.1867" gradientUnits="userSpaceOnUse">
<stop stop-color="white" stop-opacity="0"/>
<stop offset="0.388" stop-color="white"/>
<stop offset="1" stop-color="white" stop-opacity="0.831"/>
</linearGradient>
<linearGradient id="paint3_linear_89_83" x1="18.1427" y1="5.50682" x2="18.1427" y2="12.1867" gradientUnits="userSpaceOnUse">
<stop stop-color="#D1D3D4"/>
<stop offset="0.388" stop-color="#D1D3D4"/>
<stop offset="1" stop-color="#D1D3D4"/>
</linearGradient>
<linearGradient id="paint4_linear_89_83" x1="6.24836" y1="18.2581" x2="21.683" y2="18.2581" gradientUnits="userSpaceOnUse">
<stop stop-color="#E8E7E5"/>
<stop offset="1" stop-color="white"/>
</linearGradient>
<linearGradient id="paint5_linear_89_83" x1="5.53821" y1="7.14197" x2="22.2953" y2="7.14197" gradientUnits="userSpaceOnUse">
<stop stop-color="#E8E7E5"/>
<stop offset="1" stop-color="white"/>
</linearGradient>
</defs>
</svg>
