<svg width="30" height="30" viewBox="0 0 30 30" fill="none" xmlns="http://www.w3.org/2000/svg">
<g clip-path="url(#clip0_13_92)">
<path d="M3.90694 13.479C3.97436 13.3796 4.04817 13.367 4.10805 13.367C4.16793 13.367 4.26768 13.3796 4.33513 13.479C4.86661 14.209 5.74389 15.6632 6.39103 16.7359C6.81305 17.4354 7.13718 17.9727 7.20368 18.0411C7.45333 18.2978 7.7957 18.1378 7.99465 17.8467C8.19051 17.56 8.24487 17.3587 8.24487 17.144C8.24487 16.9978 5.40732 11.7204 5.12155 11.2812C4.84674 10.8587 4.75722 10.752 4.28686 10.752H3.93488C3.46592 10.752 3.39815 10.8587 3.12331 11.2812C2.83757 11.7204 0 16.9978 0 17.144C0 17.3587 0.0543737 17.56 0.250238 17.8467C0.449185 18.1378 0.791555 18.2978 1.04119 18.0411C1.1077 17.9727 1.43184 17.4354 1.85386 16.7359C2.50099 15.6632 3.37546 14.209 3.90694 13.479Z" fill="#000020"/>
<path d="M22.7251 13.0602C23.8938 13.0602 24.8232 14.1153 24.8232 15.4203C24.8232 16.7253 23.8938 17.7896 22.7251 17.7896C22.0994 17.7896 21.6117 17.5305 21.2988 17.0585V19.1964H20.0013V13.1527H21.2988V13.7914C21.6117 13.3193 22.0994 13.0602 22.7251 13.0602ZM27.6535 13.0602C28.9785 13.0602 30 14.0783 30 15.4295C30 16.7808 28.9785 17.7896 27.6535 17.7896C26.3191 17.7896 25.3068 16.7808 25.3068 15.4295C25.3068 14.0783 26.3191 13.0602 27.6535 13.0602ZM14.1652 11.2184V12.5326H11.5794V13.6988H13.8799V15.013H11.5794V16.3828H14.1652V17.6971H10.2174V11.2184H14.1652ZM16.2764 13.1527L17.0218 14.2264L17.7764 13.1527H19.3224L17.7948 15.3462L19.4328 17.6971H17.8684L17.0126 16.4661L16.1568 17.6971H14.6109L16.2396 15.3555L14.7121 13.1527H16.2764ZM22.4307 14.3004C21.7957 14.3004 21.2988 14.7909 21.2988 15.4203C21.2988 16.0589 21.7957 16.5402 22.4307 16.5402C23.0564 16.5402 23.5625 16.0496 23.5625 15.4203C23.5625 14.8002 23.0564 14.3004 22.4307 14.3004ZM27.6535 14.3096C27.0368 14.3096 26.5768 14.7817 26.5768 15.4295C26.5768 16.0589 27.0368 16.5402 27.6535 16.5402C28.2607 16.5402 28.7302 16.0589 28.7302 15.4295C28.7302 14.7817 28.2607 14.3096 27.6535 14.3096Z" fill="#000020"/>
</g>
<defs>
<clipPath id="clip0_13_92">
<rect width="30" height="30" fill="white"/>
</clipPath>
</defs>
</svg>
