<svg width="30" height="27" viewBox="0 0 30 27" fill="none" xmlns="http://www.w3.org/2000/svg">
<path d="M14.995 16.2438C16.4737 16.2438 17.6725 15.045 17.6725 13.5663C17.6725 12.0876 16.4737 10.8888 14.995 10.8888C13.5163 10.8888 12.3175 12.0876 12.3175 13.5663C12.3175 15.045 13.5163 16.2438 14.995 16.2438Z" fill="#00D8FF"/>
<path d="M14.9947 8.76143C18.4547 8.76143 21.7415 9.24924 24.2403 10.1095C27.0155 11.0649 28.7083 12.4774 28.7083 13.5657C28.7083 14.725 26.8801 16.23 23.9116 17.2136C21.5484 17.9966 18.3866 18.4233 14.9947 18.4233C11.4315 18.4233 8.23397 18.0049 5.89816 17.2065C4.43584 16.7067 3.22821 16.0571 2.40047 15.3482C1.65666 14.7112 1.28114 14.0788 1.28114 13.5657C1.28114 12.4737 2.90917 11.0808 5.6245 10.1341C8.12432 9.26262 11.4916 8.76143 14.9947 8.76143ZM14.9947 7.48029C11.3555 7.48029 7.84719 8.00248 5.20274 8.92439C2.02768 10.0314 0 11.7662 0 13.5657C0 15.4243 2.17675 17.2884 5.4838 18.4188C7.96959 19.2684 11.3016 19.7045 14.9947 19.7045C18.5144 19.7045 21.8093 19.2598 24.3146 18.4297C27.7526 17.2906 29.9894 15.4491 29.9894 13.5657C29.9894 11.7597 27.8963 10.0132 24.6573 8.89811C22.0161 7.98882 18.5896 7.48029 14.9947 7.48029ZM10.8098 11.179C12.5383 8.18172 14.6029 5.57814 16.5964 3.84325C18.8104 1.91649 20.8797 1.1557 21.8225 1.69938C22.8268 2.27851 23.2173 4.61415 22.5863 7.67693C22.084 10.1153 20.8741 13.0675 19.1796 16.0058C17.3996 19.0925 15.4397 21.6534 13.5811 23.278C12.4176 24.295 11.2516 25.0167 10.224 25.3796C9.30063 25.7057 8.56518 25.715 8.12064 25.4587C7.17469 24.9132 6.78141 22.807 7.31783 19.9819C7.81166 17.3811 9.05965 14.2138 10.8098 11.179ZM9.69997 10.539C7.88184 13.6916 6.58157 16.9916 6.05918 19.7429C5.43194 23.0463 5.92176 25.6695 7.48062 26.5685C9.09072 27.497 11.793 26.5426 14.4243 24.2425C16.4022 22.5136 18.4445 19.8451 20.2895 16.6458C22.0478 13.5968 23.3086 10.5203 23.8411 7.93543C24.5719 4.38818 24.0941 1.53043 22.4625 0.589556C20.898 -0.312649 18.3394 0.628037 15.7554 2.87683C13.6482 4.71065 11.4959 7.42483 9.69997 10.539ZM10.8138 16.0128C9.0803 13.0184 7.85572 9.92942 7.34828 7.33588C6.78469 4.4555 7.15901 2.28276 8.10091 1.7375C9.10422 1.15665 11.3228 1.9848 13.6611 4.06105C15.5227 5.71399 17.4762 8.23652 19.1756 11.172C20.9608 14.2557 22.2007 17.2326 22.68 19.6542C22.9801 21.1702 23.023 22.5408 22.8242 23.6123C22.6456 24.5751 22.2864 25.2169 21.8423 25.474C20.8972 26.0211 18.8761 25.31 16.6964 23.4344C14.6898 21.7076 12.569 19.0446 10.8138 16.0128ZM9.70504 16.6546C11.5285 19.8043 13.7381 22.5788 15.8608 24.4055C18.4095 26.5987 20.9268 27.4844 22.4842 26.5828C24.0927 25.6516 24.6154 22.8338 23.9368 19.4054C23.4267 16.8284 22.1347 13.7263 20.2843 10.5301C18.5209 7.48398 16.4852 4.85532 14.5117 3.10304C11.8035 0.698379 9.08903 -0.3149 7.45904 0.628748C5.89603 1.53357 5.43319 4.22008 6.09098 7.58189C6.62736 10.3233 7.90395 13.5435 9.70504 16.6546Z" fill="#00D8FF"/>
</svg>
